<svg width="8" height="11" viewBox="0 0 8 11" fill="none" xmlns="http://www.w3.org/2000/svg">
<path d="M6.64459 0H1.35541C0.608124 0 0 0.599446 0 1.3363V9.6637C0 10.4006 0.608124 11 1.35541 11H6.64459C7.39188 11 8 10.4006 8 9.6637V1.3363C8 0.599446 7.39188 0 6.64459 0ZM7.30764 9.66393C7.30764 10.0245 7.01015 10.3177 6.64459 10.3177H1.35541C0.989846 10.3177 0.692361 10.0245 0.692361 9.66393V5.13385H7.30787V9.66393H7.30764ZM4.976 3.92881C5.33026 3.92881 5.63374 4.14562 5.75906 4.45137H2.24094C2.36626 4.14562 2.66928 3.92881 3.024 3.92881H4.976ZM3.33372 2.37094C3.33372 2.03084 3.63259 1.75398 4 1.75398C4.36741 1.75398 4.66628 2.03084 4.66628 2.37094C4.66628 2.73698 4.33049 3.24633 4 3.24633C3.66951 3.24633 3.33372 2.73698 3.33372 2.37094ZM7.30764 4.45137H6.48096C6.34203 3.79846 5.77591 3.30002 5.08539 3.25179C5.25664 2.98244 5.35864 2.66759 5.35864 2.37117C5.35864 1.65479 4.74913 1.07172 4 1.07172C3.25087 1.07172 2.64136 1.65479 2.64136 2.37117C2.64136 2.66759 2.74313 2.98267 2.91507 3.25179C2.22432 3.30025 1.65797 3.79823 1.51904 4.45137H0.692361V1.3363C0.692361 0.97572 0.989846 0.682481 1.35541 0.682481H6.64459C7.01015 0.682481 7.30764 0.97572 7.30764 1.3363V4.45137ZM2.40088 8.59198H3.12116V9.30199C3.12116 9.49035 3.27602 9.64323 3.46734 9.64323H4.53289C4.72398 9.64323 4.87907 9.49035 4.87907 9.30199V8.59198H5.59889C5.79045 8.59198 5.94507 8.4391 5.94507 8.25074V7.20086C5.94507 7.01249 5.79045 6.85962 5.59889 6.85962H4.87907V6.14961C4.87907 5.96124 4.72398 5.80837 4.53289 5.80837H3.46734C3.27602 5.80837 3.12116 5.96124 3.12116 6.14961V6.85962H2.40088C2.20955 6.85962 2.0547 7.01249 2.0547 7.20086V8.25074C2.0547 8.4391 2.20955 8.59198 2.40088 8.59198ZM2.74706 7.5421H3.46734C3.65867 7.5421 3.81352 7.38922 3.81352 7.20086V6.49085H4.18671V7.20086C4.18671 7.38922 4.34179 7.5421 4.53289 7.5421H5.25271V7.9095H4.53289C4.34179 7.9095 4.18671 8.06237 4.18671 8.25074V8.96075H3.81352V8.25074C3.81352 8.06237 3.65867 7.9095 3.46734 7.9095H2.74706V7.5421Z" fill="#579736"/>
</svg>
