<svg width="8" height="13" viewBox="0 0 8 13" fill="none" xmlns="http://www.w3.org/2000/svg">
<path d="M3.96473 10.9041C3.85767 10.9039 3.75433 10.8649 3.67403 10.7942C3.52428 10.6624 0.000711285 7.55104 0.000711285 4.47924C-0.019371 3.40874 0.386496 2.37391 1.12945 1.60133C1.8724 0.828752 2.8919 0.381373 3.96473 0.357147C5.03756 0.381373 6.05706 0.828752 6.80001 1.60133C7.54296 2.37391 7.94883 3.40874 7.92875 4.47924C7.92875 7.55543 4.40517 10.6624 4.25542 10.7942C4.17513 10.8649 4.07179 10.9039 3.96473 10.9041ZM3.96473 1.23606C3.12552 1.26022 2.33004 1.61497 1.75227 2.22273C1.1745 2.8305 0.861459 3.64181 0.881604 4.47924C0.881604 6.67652 3.1455 9.07155 3.96473 9.86257C4.78396 9.07155 7.04785 6.68091 7.04785 4.47924C7.068 3.64181 6.75495 2.8305 6.17718 2.22273C5.59941 1.61497 4.80394 1.26022 3.96473 1.23606Z" fill="black"/>
<path d="M3.96471 6.07007C3.61626 6.07007 3.27564 5.96697 2.98592 5.77382C2.69619 5.58067 2.47038 5.30613 2.33704 4.98493C2.20369 4.66373 2.1688 4.31029 2.23678 3.96931C2.30476 3.62833 2.47255 3.31511 2.71894 3.06928C2.96533 2.82344 3.27925 2.65602 3.62101 2.5882C3.96276 2.52037 4.31699 2.55518 4.63892 2.68823C4.96084 2.82127 5.236 3.04658 5.42958 3.33565C5.62317 3.62472 5.7265 3.96458 5.7265 4.31224C5.7265 4.77845 5.54088 5.22556 5.21048 5.55521C4.88008 5.88487 4.43197 6.07007 3.96471 6.07007ZM3.96471 3.43333C3.79049 3.43333 3.62018 3.48488 3.47531 3.58146C3.33045 3.67803 3.21755 3.8153 3.15087 3.9759C3.0842 4.1365 3.06676 4.31322 3.10075 4.48371C3.13474 4.6542 3.21863 4.81081 3.34183 4.93373C3.46502 5.05665 3.62198 5.14035 3.79286 5.17427C3.96374 5.20818 4.14085 5.19077 4.30182 5.12425C4.46278 5.05773 4.60035 4.94508 4.69715 4.80054C4.79394 4.656 4.84561 4.48608 4.84561 4.31224C4.84561 4.07914 4.7528 3.85559 4.5876 3.69076C4.4224 3.52593 4.19834 3.43333 3.96471 3.43333Z" fill="black"/>
<path d="M6.16696 12.6619H1.7625C1.64568 12.6619 1.53366 12.6156 1.45106 12.5332C1.36846 12.4508 1.32205 12.339 1.32205 12.2224C1.32205 12.1059 1.36846 11.9941 1.45106 11.9117C1.53366 11.8293 1.64568 11.783 1.7625 11.783H6.16696C6.28377 11.783 6.3958 11.8293 6.4784 11.9117C6.561 11.9941 6.60741 12.1059 6.60741 12.2224C6.60741 12.339 6.561 12.4508 6.4784 12.5332C6.3958 12.6156 6.28377 12.6619 6.16696 12.6619Z" fill="black"/>
</svg>
