<svg width="22" height="22" viewBox="0 0 22 22" fill="none" xmlns="http://www.w3.org/2000/svg">
<path d="M21.7378 20.7002L14.8621 13.8319C16.2575 12.1709 16.9578 10.0354 16.8169 7.87069C16.6761 5.70597 15.7049 3.67922 14.1059 2.21317C12.507 0.747124 10.4038 -0.0450144 8.23502 0.00197731C6.06623 0.048969 3.99932 0.931462 2.46539 2.46539C0.931462 3.99932 0.048969 6.06623 0.00197731 8.23502C-0.0450144 10.4038 0.747124 12.507 2.21317 14.1059C3.67922 15.7049 5.70597 16.6761 7.87069 16.8169C10.0354 16.9578 12.1709 16.2575 13.8319 14.8621L20.7002 21.7378C20.7681 21.8062 20.8489 21.8606 20.938 21.8977C21.027 21.9348 21.1225 21.9539 21.219 21.9539C21.3154 21.9539 21.4109 21.9348 21.5 21.8977C21.589 21.8606 21.6698 21.8062 21.7378 21.7378C21.8062 21.6698 21.8606 21.589 21.8977 21.5C21.9348 21.4109 21.9539 21.3154 21.9539 21.219C21.9539 21.1225 21.9348 21.027 21.8977 20.938C21.8606 20.8489 21.8062 20.7681 21.7378 20.7002ZM1.4908 8.4322C1.4908 7.05932 1.8979 5.71727 2.66064 4.57576C3.42337 3.43426 4.50746 2.54456 5.77584 2.01918C7.04421 1.4938 8.4399 1.35634 9.7864 1.62418C11.1329 1.89201 12.3697 2.55312 13.3405 3.52389C14.3113 4.49466 14.9724 5.7315 15.2402 7.078C15.5081 8.4245 15.3706 9.82018 14.8452 11.0886C14.3198 12.3569 13.4301 13.441 12.2886 14.2038C11.1471 14.9665 9.80508 15.3736 8.4322 15.3736C6.59182 15.3717 4.82737 14.6397 3.52602 13.3384C2.22468 12.037 1.49273 10.2726 1.4908 8.4322Z" fill="#59A49F"/>
</svg>
